# xmcd
# 
# Track frame offsets:
#     150
#     21547
#     40176
#     58718
#     76514
#     94367
#     111985
#     131729
# 
# Disc length: 1976
# 
# Revision: 0
# Processed by: cddbd v1.5.2PL0 Copyright (c) Steve Scherf et al.
# Submitted via: fre:ac v1.0.17
# 
DISCID=6807b608
DTITLE=Various Artist - Panasonic Dance Power 2001
DYEAR=2001
DGENRE=Pop/Funk
TTITLE0=i d'Agostino - L'Amour Toujours
TTITLE1=Prezioso - Back to Life
TTITLE2=Natascha Hagen - Sweet La La Love
TTITLE3=Cassandra - Dooby Dooby Doo (Don't be shy)
TTITLE4=La Vania - O Meu Calor
TTITLE5=Alicia - Supergirl
TTITLE6=De la Cruz feat. Taleesa - My Love is a DJ
TTITLE7=Les Fils du Soleil - Moving in my Mind
EXTD=
EXTT0=
EXTT1=
EXTT2=
EXTT3=
EXTT4=
EXTT5=
EXTT6=
EXTT7=
PLAYORDER=
